<?xml version="1.0" encoding="utf-8"?>
<!-- Generator: Adobe Illustrator 26.0.3, SVG Export Plug-In . SVG Version: 6.00 Build 0)  -->
<svg version="1.1" id="Layer_1" xmlns="http://www.w3.org/2000/svg" xmlns:xlink="http://www.w3.org/1999/xlink" x="0px" y="0px"
	 viewBox="0 0 595.3 841.9" style="enable-background:new 0 0 595.3 841.9;" xml:space="preserve">
<style type="text/css">
	.st0{fill:#FFFFFF;enable-background:new    ;}
	.st1{fill:#EA5259;}
	.st2{fill:none;stroke:#000000;stroke-width:0.2593;stroke-miterlimit:10;}
	.st3{fill:#FFFFFF;stroke:#000000;stroke-width:0.6482;stroke-miterlimit:10;}
	.st4{fill:none;stroke:#000000;stroke-width:0.6183;stroke-miterlimit:10;}
	.st5{fill:#EAEAEF;}
	.st6{fill:#59595A;enable-background:new    ;}
	.st7{fill:#BCC9C8;enable-background:new    ;}
	.st8{fill:none;stroke:#000000;stroke-width:0.2739;stroke-miterlimit:10;}
	.st9{fill:#FFFFFF;stroke:#000000;stroke-width:0.6847;stroke-miterlimit:10;}
	.st10{fill:none;stroke:#000000;stroke-width:0.6532;stroke-miterlimit:10;}
	.st11{fill:#F49424;enable-background:new    ;}
	.st12{fill:none;stroke:#000000;stroke-width:0.232;stroke-miterlimit:10;}
	.st13{fill:#FFFFFF;stroke:#000000;stroke-width:0.5801;stroke-miterlimit:10;}
	.st14{fill:none;stroke:#000000;stroke-width:0.5534;stroke-miterlimit:10;}
	.st15{fill:#726658;enable-background:new    ;}
</style>
<path class="st0" d="M341.4,453.6H213V453H73.7V316.5h-2.2l-6.6-8.3l2.6-2.2c0.5-0.4,46.8-40.1,75.6-76.4l2.6-3.3l2.8,3.2
	c20.9,23.9,72.8,73.2,73.3,73.7l0.2,0.2c13.7-13.5,35.4-36,51-57.3l2.7-3.6l2.9,3.5c13.1,16.1,40.2,44.5,54.2,59.1v-5.3h-2.3
	l-6.2-8.8l2.2-2.1c0.5-0.4,46.9-44.8,75.6-85.3l2.7-3.8l2.9,3.7c20.9,26.7,72.8,81.7,73.3,82.3l1.7,1.8l-3.1,6l-0.8,1.8l1.7,156.8
	H341.4L341.4,453.6z M220,446.6h114.3l0-1.7h138.9l-1.6-151.2l1.5-3.5l0.9-1.7c-8.8-9.3-49-52.4-69.1-77.3
	c-25.5,34.9-62.3,71.4-71.6,80.5l0.7,0.9h5.7v29.5l-6-6.2c-9.7-10-41.2-42.5-57.8-62.3c-19.5,25.6-46.3,52-57.3,62.5l-5.8,5.6
	l-0.1-11.2l1.6-3.3l0.6-1.1c-9.3-8.9-49.1-47.1-69-69.2c-25.2,31-61.5,63.3-71.3,71.9l0.3,0.4h5.8V446H220V446.6z"/>
<g>
	<g>
		<path class="st1" d="M77.5,441.9V311.6h-4l-3.4-4.3c0,0,46.5-39.7,75.6-76.5c21.1,24.2,73.1,73.6,73.1,73.6l-2,3.5l-1.1,2.3
			l1.6,137.3H77.5V441.9z"/>
		<g>
			<line class="st2" x1="141.8" y1="243.1" x2="150.2" y2="243.1"/>
			<line class="st2" x1="135.6" y1="250.1" x2="155.6" y2="250.1"/>
			<line class="st2" x1="138.4" y1="247.1" x2="152.6" y2="247.1"/>
			<line class="st2" x1="133.1" y1="252.8" x2="158.3" y2="252.8"/>
			<line class="st2" x1="130.2" y1="255.4" x2="161.1" y2="255.4"/>
			<line class="st2" x1="127.3" y1="258.4" x2="164.1" y2="258.4"/>
			<line class="st2" x1="124.9" y1="261.5" x2="166.8" y2="261.5"/>
			<line class="st2" x1="138.9" y1="265.5" x2="120.9" y2="265.5"/>
			<line class="st2" x1="138.9" y1="268.4" x2="118.6" y2="268.4"/>
			<line class="st2" x1="138.9" y1="272" x2="114.8" y2="272"/>
			<line class="st2" x1="138.9" y1="275.6" x2="111.1" y2="275.6"/>
			<line class="st2" x1="138.9" y1="279.3" x2="107.7" y2="279.3"/>
			<line class="st2" x1="138.9" y1="281.7" x2="105" y2="281.7"/>
			<line class="st2" x1="138.9" y1="285.2" x2="101.7" y2="285.2"/>
			<line class="st2" x1="155" y1="265.5" x2="172.1" y2="265.5"/>
			<line class="st2" x1="155" y1="268.4" x2="174.3" y2="268.4"/>
			<line class="st2" x1="155" y1="272" x2="177.9" y2="272"/>
			<line class="st2" x1="155" y1="275.6" x2="181.5" y2="275.6"/>
			<line class="st2" x1="155" y1="279.3" x2="184.7" y2="279.3"/>
			<line class="st2" x1="155" y1="281.7" x2="187.3" y2="281.7"/>
			<line class="st2" x1="155" y1="285.2" x2="190.4" y2="285.2"/>
			<line class="st2" x1="192.6" y1="288.3" x2="99.3" y2="288.3"/>
			<line class="st2" x1="196.6" y1="291.2" x2="96.3" y2="291.2"/>
			<g>
				<line class="st2" x1="201.5" y1="294.8" x2="91.8" y2="294.8"/>
				<line class="st2" x1="204.1" y1="296.9" x2="90.3" y2="296.9"/>
				<line class="st2" x1="208.2" y1="301.4" x2="85.5" y2="301.4"/>
				<line class="st2" x1="208.2" y1="304.2" x2="82.5" y2="304.2"/>
				<line class="st2" x1="208.2" y1="307.1" x2="81.2" y2="307.1"/>
				<line class="st2" x1="208.2" y1="309.9" x2="81.2" y2="309.9"/>
				<line class="st2" x1="208.2" y1="312.7" x2="81.2" y2="312.7"/>
				<line class="st2" x1="208.2" y1="316.4" x2="81.2" y2="316.4"/>
				<line class="st2" x1="208.2" y1="320.4" x2="81.2" y2="320.4"/>
				<line class="st2" x1="208.2" y1="323.7" x2="81.2" y2="323.7"/>
				<line class="st2" x1="208.2" y1="327.4" x2="81.2" y2="327.4"/>
				<line class="st2" x1="208.2" y1="331.2" x2="81.2" y2="331.2"/>
				<line class="st2" x1="208.2" y1="334" x2="81.2" y2="334"/>
				<line class="st2" x1="208.2" y1="336.5" x2="81.2" y2="336.5"/>
				<line class="st2" x1="208.2" y1="339.2" x2="81.2" y2="339.2"/>
				<line class="st2" x1="208.2" y1="342" x2="81.2" y2="342"/>
				<line class="st2" x1="208.2" y1="343.7" x2="81.2" y2="343.7"/>
				<line class="st2" x1="208.2" y1="347.1" x2="81.2" y2="347.1"/>
				<line class="st2" x1="208.2" y1="351.7" x2="81.2" y2="351.7"/>
				<line class="st2" x1="208.2" y1="354.4" x2="81.2" y2="354.4"/>
				<line class="st2" x1="208.2" y1="357.6" x2="81.2" y2="357.6"/>
				<line class="st2" x1="208.2" y1="360.6" x2="81.2" y2="360.6"/>
				<line class="st2" x1="208.2" y1="363.9" x2="81.2" y2="363.9"/>
				<line class="st2" x1="208.2" y1="367" x2="81.2" y2="367"/>
				<line class="st2" x1="208.2" y1="369.6" x2="81.2" y2="369.6"/>
				<line class="st2" x1="208.2" y1="372.7" x2="81.2" y2="372.7"/>
				<line class="st2" x1="208.2" y1="375.8" x2="81.2" y2="375.8"/>
				<line class="st2" x1="208.2" y1="378.5" x2="81.2" y2="378.5"/>
				<line class="st2" x1="208.2" y1="381.1" x2="81.2" y2="381.1"/>
				<line class="st2" x1="208.2" y1="349.4" x2="81.2" y2="349.4"/>
			</g>
		</g>
		<g>
			<polygon class="st3" points="123.8,297.9 123.6,330.1 143.3,330.1 143.3,297.9 			"/>
			<polygon class="st3" points="99.8,297.9 99.7,330.1 119.3,330.1 119.3,297.9 			"/>
			<polygon class="st3" points="149.6,297.9 149.5,330.1 169.2,330.1 169.2,297.9 			"/>
			<polygon class="st3" points="173.7,297.9 173.6,330.1 193.3,330.1 193.3,297.9 			"/>
			<polygon class="st3" points="123.8,345.5 123.6,377.7 143.3,377.7 143.3,345.5 			"/>
			<polygon class="st3" points="99.8,345.5 99.7,377.7 119.3,377.7 119.3,345.5 			"/>
			<polygon class="st3" points="149.6,345.5 149.5,377.7 169.2,377.7 169.2,345.5 			"/>
			<polygon class="st3" points="173.7,345.5 173.6,377.7 193.3,377.7 193.3,345.5 			"/>
			<rect x="109.1" y="297.8" class="st3" width="1.5" height="31.9"/>
			<rect x="100.2" y="309.3" class="st3" width="18.8" height="1.2"/>
			<rect x="132.7" y="297.8" class="st3" width="1.5" height="31.9"/>
			<rect x="123.8" y="309.3" class="st3" width="18.8" height="1.2"/>
			<rect x="158.6" y="297.8" class="st3" width="1.5" height="31.9"/>
			<rect x="149.7" y="309.3" class="st3" width="18.8" height="1.2"/>
			<rect x="182.5" y="297.8" class="st3" width="1.5" height="31.9"/>
			<rect x="173.6" y="309.3" class="st3" width="18.8" height="1.2"/>
			<rect x="109.1" y="345.5" class="st3" width="1.5" height="31.9"/>
			<rect x="100.2" y="356.9" class="st3" width="18.8" height="1.2"/>
			<rect x="132.7" y="345.5" class="st3" width="1.5" height="31.9"/>
			<rect x="123.8" y="356.9" class="st3" width="18.8" height="1.2"/>
			<rect x="158.6" y="345.5" class="st3" width="1.5" height="31.9"/>
			<rect x="149.7" y="356.9" class="st3" width="18.8" height="1.2"/>
			<rect x="182.5" y="345.5" class="st3" width="1.5" height="31.9"/>
			<rect x="173.6" y="356.9" class="st3" width="18.8" height="1.2"/>
		</g>
		<path class="st4" d="M216.9,307.7c0,0-13.5-8.3-71.4-68.4c0,0-63.4,68.2-71.9,72.2"/>
		<path class="st4" d="M72.1,309.3c15.7-10.6,73.6-74.5,73.6-74.5s63.7,63.5,71.7,71.6"/>
		<line class="st4" x1="77.5" y1="384.9" x2="214.3" y2="384.9"/>
		<line class="st4" x1="77.5" y1="397.6" x2="214.3" y2="397.6"/>
		<line class="st4" x1="77.5" y1="396.7" x2="214.3" y2="396.7"/>
		<line class="st4" x1="77.5" y1="382.9" x2="214.3" y2="382.9"/>
		<polygon class="st5" points="85.8,398.2 85.8,440.4 127.9,440.4 127.9,397.7 		"/>
		<polygon class="st5" points="170,398.2 170,440.4 212.1,440.4 212.1,397.7 		"/>
		<rect x="134.5" y="398.2" class="st6" width="25.3" height="51.3"/>
		<line class="st4" x1="81.2" y1="382.9" x2="81.2" y2="305.8"/>
		<line class="st4" x1="208.4" y1="382.9" x2="207.8" y2="300.8"/>
		<g>
			<polygon class="st3" points="139,263.7 139,287.7 154.7,287.7 154.7,264.3 			"/>
			<polygon class="st3" points="140.5,266 140.5,285.7 153.4,285.7 153.4,266.5 			"/>
			<rect x="146.5" y="266.7" class="st3" width="1.7" height="18.6"/>
			<rect x="140.6" y="272.7" class="st3" width="12.7" height="1"/>
		</g>
	</g>
	<g>
		<path class="st7" d="M335.1,440.2V294.8h-4l-3.4-4.8c0,0,46.5-44.3,75.6-85.4c21.1,27,73.1,82.1,73.1,82.1l-2,3.9l-1.1,2.6
			l1.6,153.2H335.1V440.2z"/>
		<g>
			<line class="st8" x1="399.4" y1="218.4" x2="407.8" y2="218.4"/>
			<line class="st8" x1="393.2" y1="226.2" x2="413.2" y2="226.2"/>
			<line class="st8" x1="396" y1="222.9" x2="410.2" y2="222.9"/>
			<line class="st8" x1="390.7" y1="229.2" x2="415.9" y2="229.2"/>
			<line class="st8" x1="387.8" y1="232.2" x2="418.7" y2="232.2"/>
			<line class="st8" x1="384.9" y1="235.5" x2="421.7" y2="235.5"/>
			<line class="st8" x1="382.5" y1="239" x2="424.4" y2="239"/>
			<line class="st8" x1="396.5" y1="243.4" x2="378.6" y2="243.4"/>
			<line class="st8" x1="396.5" y1="246.6" x2="376.3" y2="246.6"/>
			<line class="st8" x1="396.5" y1="250.7" x2="372.4" y2="250.7"/>
			<line class="st8" x1="396.5" y1="254.7" x2="368.7" y2="254.7"/>
			<line class="st8" x1="396.5" y1="258.8" x2="365.4" y2="258.8"/>
			<line class="st8" x1="396.5" y1="261.5" x2="362.6" y2="261.5"/>
			<line class="st8" x1="396.5" y1="265.4" x2="359.3" y2="265.4"/>
			<line class="st8" x1="412.6" y1="243.4" x2="429.7" y2="243.4"/>
			<line class="st8" x1="412.6" y1="246.6" x2="431.9" y2="246.6"/>
			<line class="st8" x1="412.6" y1="250.7" x2="435.5" y2="250.7"/>
			<line class="st8" x1="412.6" y1="254.7" x2="439.1" y2="254.7"/>
			<line class="st8" x1="412.6" y1="258.8" x2="442.3" y2="258.8"/>
			<line class="st8" x1="412.6" y1="261.5" x2="444.9" y2="261.5"/>
			<line class="st8" x1="412.6" y1="265.4" x2="448" y2="265.4"/>
			<line class="st8" x1="450.2" y1="268.8" x2="356.9" y2="268.8"/>
			<line class="st8" x1="454.2" y1="272.1" x2="353.9" y2="272.1"/>
			<g>
				<line class="st8" x1="459.1" y1="276.2" x2="349.5" y2="276.2"/>
				<line class="st8" x1="461.7" y1="278.5" x2="347.9" y2="278.5"/>
				<line class="st8" x1="465.8" y1="283.4" x2="343.1" y2="283.4"/>
				<line class="st8" x1="465.8" y1="286.6" x2="340.1" y2="286.6"/>
				<line class="st8" x1="465.8" y1="289.8" x2="338.8" y2="289.8"/>
				<line class="st8" x1="465.8" y1="292.9" x2="338.8" y2="292.9"/>
				<line class="st8" x1="465.8" y1="296.1" x2="338.8" y2="296.1"/>
				<line class="st8" x1="465.8" y1="300.3" x2="338.8" y2="300.3"/>
				<line class="st8" x1="465.8" y1="304.7" x2="338.8" y2="304.7"/>
				<line class="st8" x1="465.8" y1="308.4" x2="338.8" y2="308.4"/>
				<line class="st8" x1="465.8" y1="312.4" x2="338.8" y2="312.4"/>
				<line class="st8" x1="465.8" y1="316.7" x2="338.8" y2="316.7"/>
				<line class="st8" x1="465.8" y1="319.9" x2="338.8" y2="319.9"/>
				<line class="st8" x1="465.8" y1="322.6" x2="338.8" y2="322.6"/>
				<line class="st8" x1="465.8" y1="325.6" x2="338.8" y2="325.6"/>
				<line class="st8" x1="465.8" y1="328.8" x2="338.8" y2="328.8"/>
				<line class="st8" x1="465.8" y1="330.6" x2="338.8" y2="330.6"/>
				<line class="st8" x1="465.8" y1="334.5" x2="338.8" y2="334.5"/>
				<line class="st8" x1="465.8" y1="339.6" x2="338.8" y2="339.6"/>
				<line class="st8" x1="465.8" y1="342.6" x2="338.8" y2="342.6"/>
				<line class="st8" x1="465.8" y1="346.2" x2="338.8" y2="346.2"/>
				<line class="st8" x1="465.8" y1="349.5" x2="338.8" y2="349.5"/>
				<line class="st8" x1="465.8" y1="353.2" x2="338.8" y2="353.2"/>
				<line class="st8" x1="465.8" y1="356.7" x2="338.8" y2="356.7"/>
				<line class="st8" x1="465.8" y1="359.6" x2="338.8" y2="359.6"/>
				<line class="st8" x1="465.8" y1="363.1" x2="338.8" y2="363.1"/>
				<line class="st8" x1="465.8" y1="366.4" x2="338.8" y2="366.4"/>
				<line class="st8" x1="465.8" y1="369.5" x2="338.8" y2="369.5"/>
				<line class="st8" x1="465.8" y1="372.4" x2="338.8" y2="372.4"/>
				<line class="st8" x1="465.8" y1="337" x2="338.8" y2="337"/>
			</g>
		</g>
		<g>
			<polygon class="st9" points="381.4,279.6 381.2,315.5 400.9,315.5 400.9,279.6 			"/>
			<polygon class="st9" points="357.4,279.6 357.3,315.5 377,315.5 377,279.6 			"/>
			<polygon class="st9" points="407.2,279.6 407.1,315.5 426.8,315.5 426.8,279.6 			"/>
			<polygon class="st9" points="431.3,279.6 431.2,315.5 450.9,315.5 450.9,279.6 			"/>
			<polygon class="st9" points="381.4,332.7 381.2,368.6 400.9,368.6 400.9,332.7 			"/>
			<polygon class="st9" points="357.4,332.7 357.3,368.6 377,368.6 377,332.7 			"/>
			<polygon class="st9" points="407.2,332.7 407.1,368.6 426.8,368.6 426.8,332.7 			"/>
			<polygon class="st9" points="431.3,332.7 431.2,368.6 450.9,368.6 450.9,332.7 			"/>
			<rect x="366.7" y="279.5" class="st9" width="1.5" height="35.6"/>
			<rect x="357.8" y="292.2" class="st9" width="18.8" height="1.3"/>
			<rect x="390.3" y="279.5" class="st9" width="1.5" height="35.6"/>
			<rect x="381.4" y="292.2" class="st9" width="18.8" height="1.3"/>
			<rect x="416.2" y="279.5" class="st9" width="1.5" height="35.6"/>
			<rect x="407.3" y="292.2" class="st9" width="18.8" height="1.3"/>
			<rect x="440.1" y="279.5" class="st9" width="1.5" height="35.6"/>
			<rect x="431.2" y="292.2" class="st9" width="18.8" height="1.3"/>
			<rect x="366.7" y="332.7" class="st9" width="1.5" height="35.6"/>
			<rect x="357.8" y="345.4" class="st9" width="18.8" height="1.3"/>
			<rect x="390.3" y="332.7" class="st9" width="1.5" height="35.6"/>
			<rect x="381.4" y="345.4" class="st9" width="18.8" height="1.3"/>
			<rect x="416.2" y="332.7" class="st9" width="1.5" height="35.6"/>
			<rect x="407.3" y="345.4" class="st9" width="18.8" height="1.3"/>
			<rect x="440.1" y="332.7" class="st9" width="1.5" height="35.6"/>
			<rect x="431.2" y="345.4" class="st9" width="18.8" height="1.3"/>
		</g>
		<path class="st10" d="M474.5,290.5c0,0-13.5-9.2-71.4-76.3c0,0-63.4,76.1-71.9,80.6"/>
		<path class="st10" d="M329.7,292.2c15.7-11.9,73.6-83.1,73.6-83.1s63.7,70.9,71.7,79.9"/>
		<line class="st10" x1="335.1" y1="376.7" x2="471.9" y2="376.7"/>
		<line class="st10" x1="335.1" y1="390.8" x2="471.9" y2="390.8"/>
		<line class="st10" x1="335.1" y1="389.8" x2="471.9" y2="389.8"/>
		<line class="st10" x1="335.1" y1="374.4" x2="471.9" y2="374.4"/>
		<polygon class="st5" points="343.4,391.4 343.4,438.6 385.5,438.6 385.5,390.9 		"/>
		<polygon class="st5" points="427.6,391.4 427.6,438.6 469.7,438.6 469.7,390.9 		"/>
		<rect x="392.1" y="391.4" class="st6" width="25.3" height="57.3"/>
		<line class="st10" x1="338.8" y1="374.4" x2="338.8" y2="288.4"/>
		<line class="st10" x1="466" y1="374.4" x2="465.4" y2="282.8"/>
		<g>
			<polygon class="st9" points="396.6,241.4 396.6,268.2 412.3,268.2 412.3,242.1 			"/>
			<polygon class="st9" points="398.1,243.9 398.1,265.9 411,265.9 411,244.5 			"/>
			<rect x="404.1" y="244.7" class="st9" width="1.7" height="20.7"/>
			<rect x="398.3" y="251.4" class="st9" width="12.7" height="1.1"/>
		</g>
	</g>
	<g>
		<path class="st11" d="M216.1,442.9V322h-3.4l-3-4c0,0,40.2-36.8,65.3-71c18.2,22.4,63.1,68.3,63.1,68.3l-1.7,3.2l-1,2.1l1.4,127.4
			H216.1V442.9z"/>
		<g>
			<line class="st12" x1="271.6" y1="258.5" x2="278.8" y2="258.5"/>
			<line class="st12" x1="266.3" y1="265" x2="283.5" y2="265"/>
			<line class="st12" x1="268.7" y1="262.2" x2="281" y2="262.2"/>
			<line class="st12" x1="264.1" y1="267.4" x2="285.8" y2="267.4"/>
			<line class="st12" x1="261.6" y1="269.9" x2="288.3" y2="269.9"/>
			<line class="st12" x1="259.1" y1="272.7" x2="290.9" y2="272.7"/>
			<line class="st12" x1="257" y1="275.6" x2="293.2" y2="275.6"/>
			<line class="st12" x1="269.1" y1="279.3" x2="253.6" y2="279.3"/>
			<line class="st12" x1="269.1" y1="281.9" x2="251.6" y2="281.9"/>
			<line class="st12" x1="269.1" y1="285.3" x2="248.3" y2="285.3"/>
			<line class="st12" x1="269.1" y1="288.7" x2="245.1" y2="288.7"/>
			<line class="st12" x1="269.1" y1="292" x2="242.2" y2="292"/>
			<line class="st12" x1="269.1" y1="294.3" x2="239.9" y2="294.3"/>
			<line class="st12" x1="269.1" y1="297.6" x2="237" y2="297.6"/>
			<line class="st12" x1="283" y1="279.3" x2="297.8" y2="279.3"/>
			<line class="st12" x1="283" y1="281.9" x2="299.7" y2="281.9"/>
			<line class="st12" x1="283" y1="285.3" x2="302.8" y2="285.3"/>
			<line class="st12" x1="283" y1="288.7" x2="305.9" y2="288.7"/>
			<line class="st12" x1="283" y1="292" x2="308.6" y2="292"/>
			<line class="st12" x1="283" y1="294.3" x2="310.9" y2="294.3"/>
			<line class="st12" x1="283" y1="297.6" x2="313.6" y2="297.6"/>
			<line class="st12" x1="315.5" y1="300.4" x2="234.9" y2="300.4"/>
			<line class="st12" x1="318.9" y1="303.1" x2="232.3" y2="303.1"/>
			<g>
				<line class="st12" x1="323.1" y1="306.5" x2="228.5" y2="306.5"/>
				<line class="st12" x1="325.4" y1="308.4" x2="227.2" y2="308.4"/>
				<line class="st12" x1="328.9" y1="312.5" x2="223" y2="312.5"/>
				<line class="st12" x1="328.9" y1="315.1" x2="220.5" y2="315.1"/>
				<line class="st12" x1="328.9" y1="317.8" x2="219.3" y2="317.8"/>
				<line class="st12" x1="328.9" y1="320.4" x2="219.3" y2="320.4"/>
				<line class="st12" x1="328.9" y1="323.1" x2="219.3" y2="323.1"/>
				<line class="st12" x1="328.9" y1="326.5" x2="219.3" y2="326.5"/>
				<line class="st12" x1="328.9" y1="330.2" x2="219.3" y2="330.2"/>
				<line class="st12" x1="328.9" y1="333.3" x2="219.3" y2="333.3"/>
				<line class="st12" x1="328.9" y1="336.6" x2="219.3" y2="336.6"/>
				<line class="st12" x1="328.9" y1="340.2" x2="219.3" y2="340.2"/>
				<line class="st12" x1="328.9" y1="342.8" x2="219.3" y2="342.8"/>
				<line class="st12" x1="328.9" y1="345.1" x2="219.3" y2="345.1"/>
				<line class="st12" x1="328.9" y1="347.6" x2="219.3" y2="347.6"/>
				<line class="st12" x1="328.9" y1="350.2" x2="219.3" y2="350.2"/>
				<line class="st12" x1="328.9" y1="351.8" x2="219.3" y2="351.8"/>
				<line class="st12" x1="328.9" y1="355" x2="219.3" y2="355"/>
				<line class="st12" x1="328.9" y1="359.2" x2="219.3" y2="359.2"/>
				<line class="st12" x1="328.9" y1="361.7" x2="219.3" y2="361.7"/>
				<line class="st12" x1="328.9" y1="364.7" x2="219.3" y2="364.7"/>
				<line class="st12" x1="328.9" y1="367.5" x2="219.3" y2="367.5"/>
				<line class="st12" x1="328.9" y1="370.6" x2="219.3" y2="370.6"/>
				<line class="st12" x1="328.9" y1="373.5" x2="219.3" y2="373.5"/>
				<line class="st12" x1="328.9" y1="375.9" x2="219.3" y2="375.9"/>
				<line class="st12" x1="328.9" y1="378.8" x2="219.3" y2="378.8"/>
				<line class="st12" x1="328.9" y1="381.6" x2="219.3" y2="381.6"/>
				<line class="st12" x1="328.9" y1="384.1" x2="219.3" y2="384.1"/>
				<line class="st12" x1="328.9" y1="386.5" x2="219.3" y2="386.5"/>
				<line class="st12" x1="328.9" y1="357.1" x2="219.3" y2="357.1"/>
			</g>
		</g>
		<g>
			<polygon class="st13" points="256.1,309.3 255.9,339.2 272.9,339.2 272.9,309.3 			"/>
			<polygon class="st13" points="235.4,309.3 235.2,339.2 252.2,339.2 252.2,309.3 			"/>
			<polygon class="st13" points="278.4,309.3 278.2,339.2 295.2,339.2 295.2,309.3 			"/>
			<polygon class="st13" points="299.2,309.3 299.1,339.2 316.1,339.2 316.1,309.3 			"/>
			<polygon class="st13" points="256.1,353.5 255.9,383.4 272.9,383.4 272.9,353.5 			"/>
			<polygon class="st13" points="235.4,353.5 235.2,383.4 252.2,383.4 252.2,353.5 			"/>
			<polygon class="st13" points="278.4,353.5 278.2,383.4 295.2,383.4 295.2,353.5 			"/>
			<polygon class="st13" points="299.2,353.5 299.1,383.4 316.1,383.4 316.1,353.5 			"/>
			<rect x="243.4" y="309.2" class="st13" width="1.3" height="29.6"/>
			<rect x="235.7" y="319.9" class="st13" width="16.3" height="1.1"/>
			<rect x="263.8" y="309.2" class="st13" width="1.3" height="29.6"/>
			<rect x="256.1" y="319.9" class="st13" width="16.3" height="1.1"/>
			<rect x="286.1" y="309.2" class="st13" width="1.3" height="29.6"/>
			<rect x="278.5" y="319.9" class="st13" width="16.3" height="1.1"/>
			<rect x="306.8" y="309.2" class="st13" width="1.3" height="29.6"/>
			<rect x="299.1" y="319.9" class="st13" width="16.3" height="1.1"/>
			<rect x="243.4" y="353.5" class="st13" width="1.3" height="29.6"/>
			<rect x="235.7" y="364.1" class="st13" width="16.3" height="1.1"/>
			<rect x="263.8" y="353.5" class="st13" width="1.3" height="29.6"/>
			<rect x="256.1" y="364.1" class="st13" width="16.3" height="1.1"/>
			<rect x="286.1" y="353.5" class="st13" width="1.3" height="29.6"/>
			<rect x="278.5" y="364.1" class="st13" width="16.3" height="1.1"/>
			<rect x="306.8" y="353.5" class="st13" width="1.3" height="29.6"/>
			<rect x="299.1" y="364.1" class="st13" width="16.3" height="1.1"/>
		</g>
		<path class="st14" d="M336.4,318.5c0,0-11.6-7.7-61.7-63.5c0,0-54.7,63.3-62.1,67"/>
		<path class="st14" d="M211.5,319.9C225,310,275,250.7,275,250.7s55,58.9,61.9,66.4"/>
		<line class="st14" x1="216.1" y1="390.1" x2="334.2" y2="390.1"/>
		<line class="st14" x1="216.1" y1="401.8" x2="334.2" y2="401.8"/>
		<line class="st14" x1="216.1" y1="401" x2="334.2" y2="401"/>
		<line class="st14" x1="216.1" y1="388.2" x2="334.2" y2="388.2"/>
		<polygon class="st5" points="220,402.3 220,441.6 262.3,441.6 262.3,401.9 		"/>
		<polygon class="st5" points="290.6,402.3 290.6,441.6 332.3,441.6 332.3,401.9 		"/>
		<rect x="265.3" y="402.3" class="st6" width="21.8" height="47.6"/>
		<line class="st14" x1="219.3" y1="388.2" x2="219.3" y2="316.7"/>
		<line class="st14" x1="329.1" y1="388.2" x2="328.6" y2="312"/>
		<g>
			<polygon class="st13" points="269.2,277.6 269.2,299.9 282.7,299.9 282.7,278.2 			"/>
			<polygon class="st13" points="270.5,279.7 270.5,298 281.6,298 281.6,280.1 			"/>
			<rect x="275.6" y="280.3" class="st13" width="1.5" height="17.2"/>
			<rect x="270.6" y="285.9" class="st13" width="11" height="0.9"/>
		</g>
	</g>
	<rect x="73.5" y="445.7" class="st15" width="405.9" height="4.2"/>
</g>
</svg>
